<svg width="81" height="96" viewBox="0 0 81 96" fill="none" xmlns="http://www.w3.org/2000/svg">
<g clip-path="url(#clip0_28_201)">
<path d="M0.600006 95.1527H80.6V0.847168H0.600006V95.1527Z" fill="#004A99"/>
<path d="M2.38316 93.3797H78.8269V2.62036H2.38316V93.3797Z" fill="white"/>
<path d="M24.8891 53.8381C28.2842 58.9659 34.1071 62.3408 40.7058 62.3408C51.173 62.3408 59.6656 53.8482 59.6656 43.381C59.6656 42.3635 59.585 41.356 59.4339 40.3788C58.5474 34.8279 55.2631 30.0829 50.6592 27.2419C47.7679 25.4487 44.3527 24.4211 40.7058 24.4211C37.482 24.4211 34.4496 25.2271 31.79 26.6375C29.5535 27.8363 27.589 29.4583 25.9973 31.4127C23.781 34.1328 22.3 37.4875 21.8769 41.1545C21.7963 41.89 21.746 42.6254 21.746 43.381C21.746 47.2495 22.9045 50.846 24.8891 53.8381Z" fill="#8F9ACE"/>
<path d="M50.6189 27.8161L47.647 28.4508L49.6921 29.6295L50.3872 28.8236L51.2233 28.2896L50.6189 27.8161ZM50.6592 27.252C55.2531 30.0929 58.5474 34.8379 59.4339 40.3989L57.953 41.6683L57.006 41.4466L56.5627 41.8395L56.5929 42.1015C56.603 42.2224 56.6635 42.4642 56.7541 42.8369C56.9455 43.5925 57.0362 44.348 57.0362 45.0835C57.0362 45.7685 57.006 45.9902 56.8549 46.6551H56.0489L53.7822 44.8115L52.0494 45.2044L50.9312 45.0129L49.5107 45.4461L50.1555 46.0002L51.2636 45.6879L52.2207 46.4536L52.0696 46.786L51.6767 47.4207L50.8204 48.6397L49.5107 49.6975L47.0828 47.1789L46.4582 47.2494L49.0473 50.2214L50.095 50.0098L50.357 50.5437L49.2992 52.2765L47.244 54.241L46.3172 56.5883C46.297 56.6488 46.1963 56.7193 46.0552 56.7898C45.753 56.9308 45.4105 57.1827 45.0176 57.5555C44.5239 58.0189 44.2419 58.2808 44.1814 58.3312C43.7684 58.6938 43.2848 59.0666 42.7106 59.4494C42.1464 59.8322 41.5722 60.1748 41.008 60.4568C40.0107 60.9606 38.8924 61.2426 37.885 61.2426C37.2201 61.2426 36.5451 61.1318 35.8903 60.9102C35.7996 60.88 35.7392 60.8397 35.7392 60.7994L36.1925 59.53C36.2126 59.4696 36.5955 59.0364 37.3107 58.2607C37.6331 57.9081 37.8951 57.4245 38.0865 56.8503C38.3585 56.004 38.5499 55.4902 38.6607 55.3089C39.0737 54.644 39.2652 54.0798 39.1342 53.9388L36.4444 51.2389L35.316 49.1434L35.4369 48.6498C35.5175 48.3072 35.7895 47.6927 36.3134 46.6954C36.5955 46.1513 36.8272 45.8693 37.0891 45.7383L38.8924 44.8518L42.3882 45.3756L43.4561 46.0808L43.9598 46.0204L46.0955 46.5745L46.6295 45.1842L43.9195 44.4186L42.9624 43.4615L42.8315 43.5018L43.2848 44.6301L42.7408 44.7409L42.6803 44.61L42.8718 44.5798C42.8818 44.5898 42.7106 43.8846 42.2874 43.6831C42.1363 43.6126 42.0356 43.5421 41.8845 43.5421C41.6729 43.5421 41.3405 43.6731 41.1591 43.8343C40.5647 44.3783 40.1013 44.751 40.061 44.7208L38.9529 43.8746L39.3659 42.8369L39.5372 42.8772C39.6379 42.8973 39.7487 42.9175 39.8495 42.9175C40.2021 42.9175 40.4136 42.716 40.4539 42.5145C40.5043 42.2627 40.333 42.1418 40.333 42.1418C40.3431 42.1317 40.2222 42.0209 40.2222 42.0209C40.2222 42.031 40.3834 41.8395 40.3733 41.8395C40.3733 41.8395 40.7964 41.9504 41.0382 41.9604C41.3203 41.9806 41.6024 41.9101 41.7132 41.7892L41.9852 41.3661L42.4386 41.2452L42.5192 40.6407L42.8012 40.6609C42.8012 40.6609 42.9624 40.8724 43.0229 41.1646L43.8087 40.9631L44.0202 40.137L43.8993 39.9959L44.2419 39.2303L43.9396 39.0187L43.4359 40.4392L43.1639 40.4795L43.043 40.1672L42.3378 40.2176L41.9449 39.5829L42.8012 38.6964L43.6374 37.5781L44.8161 37.9509L45.1082 38.5352L45.4709 38.5251L45.34 37.6688L46.3071 36.7621L45.6623 33.8506L46.0754 32.9339L46.5388 32.9641L46.5992 32.2488L43.5165 28.8538L43.6173 27.937L46.166 27.3527L46.5287 27.4635L47.9794 27.3225L48.3119 27.4736L50.6592 27.252ZM24.8891 53.838L26.1988 52.75L27.2767 53.022L30.158 50.856L30.299 49.6975L28.4051 46.9371C28.3748 46.8968 28.2539 45.1741 27.8913 43.8846C27.6999 43.2097 27.2566 41.2452 27.2364 41.2049L26.9846 40.7012L25.1813 38.0012L26.3499 35.0797L27.2767 35.0394L27.3271 34.6062L26.6421 34.032L26.6219 33.9111L26.6018 33.3671C26.6018 32.9943 27.2364 32.6216 27.6495 32.6216C27.7603 32.6216 27.8812 32.6417 28.0021 32.6719C28.2942 32.7525 28.5763 32.9943 28.8282 33.1756C28.8786 33.2059 29.6543 35.0394 29.6543 35.0394L28.9894 35.5733L28.667 36.3793L29.1203 36.7319L29.755 35.6439L32.3743 36.5203L33.9862 37.4371L34.4698 36.9031L35.8197 37.014L36.807 35.6741L35.9104 35.3315L36.8473 34.2032L36.7365 33.8204L35.306 33.5484L36.4041 32.3999L37.4518 33.085L37.4316 33.3872L38.1066 33.4678L38.6708 32.3899L38.2779 32.0373L39.9502 30.4254L41.4614 29.7202L42.64 28.9444L42.8718 28.7631L42.9221 27.937L42.7206 27.3527L42.1968 27.1512L42.8617 26.6274L42.6803 26.5266C42.2371 26.8288 41.1793 27.5542 39.3357 27.6852C38.026 27.7758 35.3664 27.1915 35.3664 27.1915L32.737 26.7986L31.8202 26.6374C29.5838 27.8262 27.6193 29.4582 26.0275 31.4026L25.9469 33.8909L25.554 35.0293L24.6171 38.3236L24.9194 39.2504L23.4183 39.462L21.9071 41.1444C21.7963 41.8899 21.756 42.6354 21.756 43.391C21.756 47.2494 22.9045 50.846 24.8891 53.838ZM27.8409 41.6381L27.9215 42.0007L28.264 41.8899L28.1532 41.5272L27.8409 41.6381ZM42.0054 44.1163L41.7636 44.0861L41.7434 44.5395L41.9852 44.5798L42.1263 44.0055L42.0557 43.9753L42.0054 44.1163ZM48.3522 58.4017C48.3522 58.4118 48.1507 58.1801 48.1507 58.1801C48.1507 58.1901 47.8283 58.3715 47.8283 58.3715C47.8283 58.3715 48.0701 58.6133 48.06 58.6133L48.3522 58.4017ZM48.7954 56.0947L48.2011 56.4372L47.4354 56.5984L45.753 58.2506L45.8537 58.6133L46.0955 58.583L47.0526 58.17C47.3044 58.0592 48.0902 57.626 48.4932 57.1827C48.876 56.7697 48.9969 56.6085 49.2186 56.1853L48.7954 56.0947ZM39.8998 41.1746L40.3129 41.2855L40.4338 40.9026L40.1416 40.8321L39.8998 41.1746ZM41.008 40.3586C41.008 40.3586 40.5244 41.5373 40.5244 41.5474C40.5244 41.5474 41.28 41.6179 41.28 41.628L41.4614 40.6609L41.3304 40.5601L41.4211 40.2277L41.0382 40.0161L40.9173 40.268L41.008 40.3586ZM28.4151 41.4668C28.4252 41.4668 28.6771 41.3661 28.6771 41.3661L28.5763 41.1444C28.5763 41.1444 28.4252 41.2754 28.4252 41.2855L28.4151 41.4668ZM28.2237 40.7515L28.3245 41.0034L28.6368 40.8623C28.6368 40.8623 28.5562 40.6306 28.5461 40.6306L28.2237 40.7515ZM28.0222 39.9254L28.0827 40.3082H28.4454L28.395 39.8952L28.0222 39.9254ZM27.6696 39.2001L27.8611 39.4922L28.2237 39.5426L28.3849 38.8173L27.8006 38.6863L27.6696 39.2001ZM27.3573 38.2833L27.9517 38.3538L28.1331 36.9434V36.5203L28.0323 36.0972L27.7301 36.077L27.3573 38.2833ZM40.5547 30.6571L38.842 32.0171L39.4566 32.4604L40.8166 31.0701L40.5547 30.6571ZM39.0435 33.0145L38.8017 33.0044L38.3383 33.8506L37.613 33.9111L36.7768 35.0998L37.2301 35.3819L38.3484 34.6666L39.2047 33.7499L39.0435 33.0145ZM38.6305 35.0092L37.7842 35.7547V36.2584L39.1342 36.5908L41.814 34.7674L41.7434 34.0219L40.6756 33.6491L38.6305 35.0092ZM34.5605 37.2154L35.5679 37.3766L35.2254 38.0415L34.359 37.568L34.5605 37.2154Z" fill="#004A99"/>
<path d="M17.3032 11.9491L16.3461 14.78H18.1897L17.3032 11.9491ZM19.3684 18.5276L18.8748 16.9459H15.6208L15.0969 18.5276H12.3769L16.2353 7.92944H18.2401L22.0885 18.5276H19.3684Z" fill="#E42618"/>
<path d="M30.0572 10.851C29.8255 10.4883 29.4629 10.2566 28.808 10.2566H27.6596V16.2105H28.808C29.4629 16.2105 29.8155 15.9687 30.0572 15.6161C30.2688 15.3139 30.3393 15.0318 30.3393 13.2386C30.3393 11.4454 30.2688 11.1431 30.0572 10.851ZM31.8404 17.49C31.1151 18.2153 30.0875 18.5276 28.9793 18.5276H25.0503V7.92944H28.9793C30.0774 7.92944 31.105 8.24175 31.8404 8.9671C33.0795 10.2062 32.9385 11.5562 32.9385 13.2285C32.9486 14.9009 33.0795 16.2508 31.8404 17.49Z" fill="#E42618"/>
<path d="M36.4846 18.5276V7.92944H43.6878V10.2465H39.0838V12.0196H43.0128V14.3367H39.0838V16.2004H43.6777V18.5175H36.4846V18.5276Z" fill="#E42618"/>
<path d="M54.568 18.5276V13.4502L53.0669 16.0695H51.3946L49.8935 13.4502V18.5276H47.2944V7.92944H49.8532L52.2308 12.6039L54.6083 7.92944H57.1672V18.5276H54.568Z" fill="#E42618"/>
<path d="M61.0357 18.5276V7.92944H68.2388V10.2465H63.645V12.0196H67.5739V14.3367H63.645V16.2004H68.2388V18.5175H61.0357V18.5276Z" fill="#E42618"/>
<path d="M14.4219 71.3773L14.9257 69.8762L15.3992 71.3773H14.4219ZM14.4925 68.3147L12.8101 72.9489H13.9082L14.1399 72.2437H15.6812L15.9029 72.9489H17.001L15.3085 68.3147H14.4925Z" fill="#E42618"/>
<path d="M20.0031 72.9892C20.5874 72.9892 20.9904 72.8381 21.343 72.4754C21.6855 72.1329 21.8064 71.7097 21.8064 70.934V70.3296H20.0535V71.196H20.7587V71.3168C20.7587 71.5385 20.6882 71.74 20.5572 71.8609C20.4363 71.9918 20.2449 72.0624 19.993 72.0624C19.7815 72.0624 19.6001 71.9818 19.4893 71.8407C19.3785 71.6896 19.308 71.5284 19.308 70.6318C19.308 69.7453 19.3785 69.574 19.4893 69.433C19.6001 69.2919 19.7916 69.2012 19.993 69.2012C20.3859 69.2012 20.6076 69.3624 20.7184 69.7352H21.7863C21.6956 69.2516 21.3531 68.2744 19.993 68.2744C19.4692 68.2744 19.0662 68.4356 18.7136 68.7882C18.2502 69.2516 18.2502 69.8863 18.2502 70.5512V70.7124C18.2502 71.3773 18.2502 72.012 18.7136 72.4754C19.0763 72.828 19.4792 72.9892 20.0031 72.9892Z" fill="#E42618"/>
<path d="M24.6574 71.0751H26.4204V70.1482H24.6574V69.2415H26.7227V68.3147H23.6097V72.9489H26.7227V72.022H24.6574V71.0751Z" fill="#E42618"/>
<path d="M32.1124 72.9489V68.3147H31.0546V70.8433L29.4427 68.3147H28.5058V72.9489H29.5636V70.4303L31.1654 72.9489H32.1124Z" fill="#E42618"/>
<path d="M36.3033 71.5487C36.2328 71.7804 36.0817 72.0524 35.6586 72.0524C35.447 72.0524 35.2657 71.9718 35.1549 71.8308C35.044 71.6797 34.9634 71.5084 34.9634 70.6219C34.9634 69.7353 35.044 69.564 35.1549 69.4129C35.2657 69.2719 35.447 69.1913 35.6586 69.1913C36.0918 69.1913 36.2328 69.4633 36.3033 69.695H37.3813C37.1999 68.7783 36.5753 68.2544 35.6485 68.2544C35.1246 68.2544 34.7217 68.4156 34.3691 68.7682C33.9056 69.2316 33.9056 69.8663 33.9056 70.5312V70.6924C33.9056 71.3573 33.9056 71.992 34.3691 72.4554C34.7217 72.808 35.1246 72.9692 35.6485 72.9692C36.5753 72.9692 37.21 72.4453 37.3813 71.5386H36.3033V71.5487Z" fill="#E42618"/>
<path d="M40.0409 71.0751H41.8039V70.1482H40.0409V69.2415H42.096V68.3147H38.9831V72.9489H42.096V72.022H40.0409V71.0751Z" fill="#E42618"/>
<path d="M49.1783 71.7299C49.0473 71.9314 48.8559 72.022 48.5738 72.022H48.0096V69.2415H48.5738C48.8559 69.2415 49.0473 69.3322 49.1783 69.5337C49.279 69.6848 49.3092 69.846 49.3092 70.6318C49.3092 71.4579 49.279 71.5888 49.1783 71.7299ZM50.367 70.8333C50.367 70.7628 50.367 70.7023 50.367 70.6318C50.367 70.5613 50.367 70.5008 50.367 70.4303C50.367 69.7755 50.3771 69.2516 49.8935 68.768C49.6014 68.4759 49.1682 68.3147 48.6544 68.3147H46.9418V72.9489H48.6443C49.1581 72.9489 49.5913 72.7877 49.8835 72.4955C50.3771 72.012 50.367 71.4881 50.367 70.8333Z" fill="#E42618"/>
<path d="M53.208 71.0751H54.971V70.1482H53.208V69.2415H55.2631V68.3147H52.1502V72.9489H55.2631V72.022H53.208V71.0751Z" fill="#E42618"/>
<path d="M61.1667 68.3147H60.1089V72.9489H63.1614V72.022H61.1667V68.3147Z" fill="#E42618"/>
<path d="M65.8109 71.3773L66.3146 69.8762L66.7881 71.3773H65.8109ZM67.2818 72.9489H68.3799L66.6874 68.3147H65.8613L64.1789 72.9489H65.277L65.5087 72.2437H67.0501L67.2818 72.9489Z" fill="#E42618"/>
<path d="M14.1499 80.5045H15.2077V76.7972H16.3764V75.8704H12.9813V76.7972H14.1499V80.5045Z" fill="#E42618"/>
<path d="M20.8997 77.8751H20.1844V76.8073H20.8997C21.2624 76.8073 21.4639 77.0793 21.4639 77.3412C21.4639 77.6031 21.2725 77.8751 20.8997 77.8751ZM21.7863 78.53C21.9575 78.4393 22.5318 78.0968 22.5318 77.3412C22.5318 76.6058 21.9978 75.8704 20.9602 75.8704H19.1367V80.5045H20.1945V78.7415H20.6781L21.5243 80.5045H22.7534L21.7359 78.5602L21.7863 78.53Z" fill="#E42618"/>
<path d="M26.6219 78.9329L27.1256 77.4319L27.5991 78.9329H26.6219ZM26.6824 75.8704L24.9899 80.5045H26.0981L26.3298 79.7993H27.8711L28.0928 80.5045H29.1909L27.4984 75.8704H26.6824Z" fill="#E42618"/>
<path d="M31.7699 75.8704V80.5045H32.8277V77.9759L34.4396 80.5045H35.3765V75.8704H34.3187V78.3889L32.7068 75.8704H31.7699Z" fill="#E42618"/>
<path d="M40.2524 77.7343L39.6782 77.6537C39.5271 77.6336 39.4062 77.5832 39.3155 77.5026C39.2148 77.4018 39.2047 77.291 39.2047 77.2407C39.2047 76.9989 39.4062 76.747 39.8394 76.747H39.8797C40.0912 76.747 40.4539 76.747 40.7461 77.0089L41.4009 76.3541C41.0282 76.0015 40.5547 75.8403 39.8797 75.8403C38.8723 75.8403 38.1973 76.4246 38.1973 77.291C38.1973 77.6839 38.298 77.9962 38.5096 78.2078C38.7111 78.4194 39.0234 78.5503 39.4364 78.6108L40.0106 78.6914C40.1618 78.7115 40.2827 78.7619 40.3532 78.8324C40.4237 78.913 40.464 79.0238 40.464 79.1548C40.464 79.3764 40.333 79.6383 39.7286 79.6383C39.517 79.6383 38.9931 79.6081 38.6708 79.326L37.9958 79.9909C38.4088 80.3939 38.9226 80.5652 39.7185 80.5652C40.605 80.5652 41.5016 80.1219 41.5016 79.1245C41.5016 78.6712 41.3908 78.3488 41.1692 78.1272C40.9576 77.9156 40.6554 77.7847 40.2524 77.7343Z" fill="#E42618"/>
<path d="M45.3903 75.8704H44.3325V80.5045H45.3903V75.8704Z" fill="#E42618"/>
<path d="M49.3193 80.5045H50.3771V76.7972H51.5457V75.8704H48.1507V76.7972H49.3193V80.5045Z" fill="#E42618"/>
<path d="M54.3061 80.5045H55.3639V75.8704H54.3061V80.5045Z" fill="#E42618"/>
<path d="M60.5118 79.3863C60.4212 79.4971 60.2398 79.618 59.9981 79.618C59.7563 79.618 59.5749 79.4971 59.4843 79.3863C59.3735 79.2352 59.3029 79.0841 59.3029 78.1875C59.3029 77.2908 59.3735 77.1297 59.4843 76.9886C59.5951 76.8476 59.7865 76.7569 59.9981 76.7569C60.2096 76.7569 60.401 76.8476 60.5118 76.9886C60.6227 77.1397 60.6932 77.3009 60.6932 78.1875C60.6932 79.074 60.6227 79.2352 60.5118 79.3863ZM61.751 78.1069C61.751 77.442 61.751 76.8073 61.2876 76.3439C60.9249 75.9913 60.532 75.8301 59.9981 75.8301C59.4641 75.8301 59.0712 75.9913 58.7085 76.3539C58.2451 76.8174 58.2451 77.452 58.2451 78.1169V78.2781C58.2451 78.943 58.2451 79.5777 58.7085 80.0411C59.0712 80.3937 59.4641 80.5549 59.9981 80.5549C60.532 80.5549 60.9249 80.3937 61.2876 80.0411C61.751 79.5777 61.751 78.943 61.751 78.2781V78.1069Z" fill="#E42618"/>
<path d="M68.2388 80.5045V75.8704H67.181V78.3889L65.5691 75.8704H64.6322V80.5045H65.69V77.986L67.3019 80.5045H68.2388Z" fill="#E42618"/>
<path d="M14.0391 86.1965H15.8021V85.2596H14.0391V84.3529H16.1043V83.416H12.9712V88.0703H16.1043V87.1334H14.0391V86.1965Z" fill="#E42618"/>
<path d="M14.4925 81.7539L14.1902 82.8419H14.7544L15.4697 81.7539H14.4925Z" fill="#E42618"/>
<path d="M21.1516 84.8266H22.2396C22.0583 83.9099 21.4337 83.386 20.4967 83.386C19.9729 83.386 19.5699 83.5472 19.2173 83.8998C18.7337 84.3733 18.7337 84.9979 18.7438 85.6728V85.834C18.7438 86.4989 18.7438 87.1336 19.2072 87.597C19.5598 87.9496 19.9729 88.1209 20.4867 88.1209C21.4236 88.1209 22.0482 87.597 22.2295 86.6803H21.1516C21.0811 86.912 20.9299 87.184 20.4967 87.184C20.2852 87.184 20.1039 87.1034 19.993 86.9624C19.8822 86.8113 19.8016 86.64 19.8016 85.7534C19.8016 84.8669 19.8822 84.6856 19.993 84.5445C20.1039 84.4035 20.2852 84.3229 20.4967 84.3229C20.9299 84.3128 21.0811 84.5949 21.1516 84.8266Z" fill="#E42618"/>
<path d="M26.9241 86.9523C26.8133 87.1034 26.6219 87.184 26.4104 87.184C26.1988 87.184 26.0074 87.0933 25.8966 86.9523C25.7857 86.8012 25.7152 86.64 25.7152 85.7534C25.7152 84.8568 25.7857 84.6956 25.8966 84.5445C26.0074 84.4035 26.1988 84.3128 26.4104 84.3128C26.6219 84.3128 26.8133 84.3934 26.9241 84.5445C27.035 84.6956 27.1055 84.8568 27.1055 85.7534C27.1156 86.64 27.045 86.8012 26.9241 86.9523ZM26.4104 83.386C25.8764 83.386 25.4734 83.5472 25.1208 83.9098C24.6574 84.3733 24.6574 85.0079 24.6574 85.6829V85.8441C24.6574 86.5191 24.6574 87.1437 25.1208 87.6172C25.4835 87.9799 25.8764 88.1411 26.4104 88.1411C26.9443 88.1411 27.3473 87.9799 27.6999 87.6172C28.1633 87.1538 28.1633 86.5191 28.1633 85.8542V85.6728C28.1633 85.0079 28.1633 84.3733 27.6999 83.9098C27.3473 83.5472 26.9443 83.386 26.4104 83.386Z" fill="#E42618"/>
<path d="M31.9915 83.4263H30.9337V88.0806H33.9963V87.1437H31.9915V83.4263Z" fill="#E42618"/>
<path d="M38.57 86.9523C38.4592 87.1034 38.2678 87.184 38.0562 87.184C37.8145 87.184 37.6331 87.0631 37.5425 86.9523C37.4316 86.8012 37.3611 86.64 37.3611 85.7534C37.3611 84.8568 37.4316 84.6956 37.5425 84.5445C37.6533 84.4035 37.8447 84.3128 38.0562 84.3128C38.2678 84.3128 38.4592 84.3934 38.57 84.5445C38.6808 84.6956 38.7514 84.8568 38.7514 85.7534C38.7614 86.64 38.6909 86.8012 38.57 86.9523ZM38.0562 83.386C37.5223 83.386 37.1193 83.5472 36.7667 83.9098C36.3033 84.3733 36.3033 85.0079 36.3033 85.6829V85.8441C36.3033 86.5191 36.3033 87.1437 36.7667 87.6172C37.1193 87.9799 37.5223 88.1411 38.0562 88.1411C38.5902 88.1411 38.9932 87.9799 39.3458 87.6172C39.8092 87.1538 39.8092 86.5191 39.8092 85.8441V85.6728C39.8092 84.9979 39.8092 84.3733 39.3458 83.8998C38.9932 83.5472 38.5902 83.386 38.0562 83.386Z" fill="#E42618"/>
<path d="M44.9068 84.8568H45.9747C45.884 84.3632 45.5415 83.386 44.1814 83.386C43.6475 83.386 43.2546 83.5472 42.8919 83.8998C42.4285 84.3632 42.4285 84.9979 42.4285 85.6728V85.834C42.4285 86.509 42.4285 87.1336 42.8919 87.6071C43.2445 87.9597 43.6576 88.131 44.1814 88.131C44.7758 88.131 45.1788 87.9799 45.5314 87.6071C45.8739 87.2646 45.9948 86.8415 45.9948 86.0557V85.4512H44.2419V86.3176H44.9471V86.4385C44.9471 86.6702 44.8766 86.8616 44.7557 86.9825C44.6247 87.1135 44.4434 87.184 44.1915 87.184C43.9799 87.184 43.7885 87.1034 43.6878 86.9624C43.577 86.8113 43.5064 86.6501 43.5064 85.7534C43.5064 84.8568 43.577 84.6956 43.6878 84.5445C43.7986 84.3934 43.9799 84.3128 44.1915 84.3128C44.5743 84.3128 44.796 84.474 44.9068 84.8568Z" fill="#E42618"/>
<path d="M48.7451 88.0806H49.8029V83.4263H48.7451V88.0806Z" fill="#E42618"/>
<path d="M55.0012 86.4587L54.9911 86.5795L54.7191 86.3075L54.2053 86.8213L54.5378 87.1538L54.437 87.1739C54.3967 87.184 54.3665 87.184 54.3363 87.184C54.0945 87.184 53.9132 87.0631 53.8225 86.9523C53.7117 86.8012 53.6412 86.64 53.6412 85.7534C53.6412 84.8568 53.7117 84.6956 53.8225 84.5546C53.9333 84.4136 54.1247 84.3229 54.3363 84.3229C54.5479 84.3229 54.7393 84.4136 54.8501 84.5546C54.9609 84.7057 55.0314 84.8669 55.0314 85.7534C55.0314 86.096 55.0113 86.3176 55.0012 86.4587ZM55.8273 87.3452C56.0993 86.9221 56.0892 86.3881 56.0892 85.824V85.6728C56.0892 84.9979 56.0892 84.3733 55.6258 83.8998C55.2732 83.5472 54.8702 83.386 54.3363 83.386C53.8024 83.386 53.3994 83.5472 53.0468 83.8998C52.5834 84.3632 52.5834 84.9979 52.5834 85.6728V85.834C52.5834 86.509 52.5834 87.1336 53.0468 87.6071C53.4095 87.9698 53.8024 88.131 54.3363 88.131C54.6889 88.131 54.9811 88.0605 55.2329 87.9194L55.2732 87.8993L55.6359 88.2619L56.1497 87.7482L55.8071 87.4056L55.8273 87.3452Z" fill="#E42618"/>
<path d="M59.8268 86.4282V83.416H58.769V86.4484C58.769 87.4054 59.5044 88.1106 60.5119 88.1106C61.5294 88.1106 62.2749 87.4155 62.2749 86.4484V83.416H61.217V86.4282C61.217 86.8916 60.945 87.1838 60.5219 87.1838C60.0887 87.1838 59.8268 86.8916 59.8268 86.4282Z" fill="#E42618"/>
<path d="M66.1635 86.1965H67.9265V85.2596H66.1635V84.3529H68.2288V83.416H65.0957V88.0703H68.2288V87.1334H66.1635V86.1965Z" fill="#E42618"/>
</g>
<defs>
<clipPath id="clip0_28_201">
<rect width="80" height="94.3055" fill="white" transform="translate(0.600006 0.847168)"/>
</clipPath>
</defs>
</svg>
