<?xml version="1.0" encoding="UTF-8" standalone="no"?>
<!DOCTYPE svg PUBLIC "-//W3C//DTD SVG 1.1//EN" "http://www.w3.org/Graphics/SVG/1.1/DTD/svg11.dtd">
<svg width="100%" height="100%" viewBox="0 0 1938 1192" version="1.1" xmlns="http://www.w3.org/2000/svg" xmlns:xlink="http://www.w3.org/1999/xlink" xml:space="preserve" xmlns:serif="http://www.serif.com/" style="fill-rule:evenodd;clip-rule:evenodd;stroke-linecap:round;stroke-linejoin:round;stroke-miterlimit:1.5;">
    <g transform="matrix(1,0,0,1,-2803.749849,-38.298886)">
        <g id="Plan-de-travail3" serif:id="Plan de travail3" transform="matrix(0.830105,0,0,0.909598,824.476155,38.298886)">
            <rect x="2384.367" y="0" width="2334.367" height="1309.563" style="fill:none;"/>
            <clipPath id="_clip1">
                <rect x="2384.367" y="0" width="2334.367" height="1309.563"/>
            </clipPath>
            <g clip-path="url(#_clip1)">
                <g transform="matrix(1.204668,0,0,1.099387,-993.219681,-42.105299)">
                    <path d="M3624,1197.892L3624,1208.003L4444.344,734.378L4444.344,724.618" style="fill:none;stroke:rgb(115,115,115);stroke-width:3.46px;"/>
                </g>
                <g transform="matrix(1.204668,0,0,1.099387,-683.594484,145.160793)">
                    <path d="M2909.705,764.633L3366.296,1028.415L4188.415,553.761L3731.681,290.065L2909.705,764.633Z" style="fill:rgb(248,233,237);stroke:black;stroke-width:3.45px;"/>
                </g>
                <g transform="matrix(1.204668,0,0,1.099387,-993.219681,-42.105299)">
                    <path d="M3566.342,847.19L3778.511,969.686L4036.414,820.786L3823.495,698.723L3566.342,847.19Z" style="fill:rgb(192,205,239);stroke:black;stroke-width:4.17px;"/>
                </g>
                <g transform="matrix(1.204668,0,0,1.099387,-993.219681,-42.105299)">
                    <path d="M3624,1208.131L3167.422,944.398L3166.726,935.139" style="fill:none;stroke:rgb(115,115,115);stroke-width:3.46px;"/>
                </g>
                <g transform="matrix(1.204668,0,0,1.099387,-683.594484,145.160793)">
                    <path d="M3657.447,353.25L3728.386,312.293L3781.59,343.011L3710.652,383.967L3657.447,353.25Z" style="fill:white;stroke:black;stroke-width:3.45px;"/>
                </g>
                <g transform="matrix(1.204668,0,0,1.099387,-683.594484,145.160793)">
                    <path d="M3728.386,383.967L3790.458,348.13L3852.529,383.967L3790.458,419.804L3728.386,383.967Z" style="fill:white;stroke:black;stroke-width:3.45px;"/>
                </g>
                <g transform="matrix(1.204668,0,0,1.099387,-683.594484,145.160793)">
                    <path d="M3338.223,936.88L3382.56,911.283L3426.896,936.88L3382.56,962.478L3338.223,936.88Z" style="fill:white;stroke:black;stroke-width:3.45px;"/>
                </g>
                <g transform="matrix(1.204668,0,0,1.099387,-683.594484,145.160793)">
                    <path d="M3323.321,971.082L3352.592,954.182L3320.698,935.769L3291.313,952.734L3321.907,970.398L3323.321,971.082Z" style="fill:white;stroke:black;stroke-width:3.45px;"/>
                </g>
                <g transform="matrix(1.204668,0,0,1.099387,-683.594484,145.160793)">
                    <path d="M3205.551,612.262L3464.967,462.487L3516.446,492.209L3257.175,642.067" style="fill:white;stroke:black;stroke-width:3.45px;"/>
                </g>
                <g transform="matrix(1.204668,0,0,1.099387,-683.594484,145.160793)">
                    <path d="M3205.551,612.262L3257.175,642.067" style="fill:none;stroke:black;stroke-width:3.45px;"/>
                </g>
                <g transform="matrix(1.204668,0,0,1.099387,-683.594484,145.160793)">
                    <path d="M3107.779,773.682L3161.917,742.425L3407.557,884.245L3353.153,915.656L3107.779,773.682Z" style="fill:white;stroke:black;stroke-width:3.45px;"/>
                </g>
                <g transform="matrix(1.204668,0,0,1.099387,-993.219681,-42.105299)">
                    <path d="M3823.495,995.658L4089.716,841.955L4150.299,876.932L3884.869,1030.178L3823.495,995.658Z" style="fill:white;stroke:black;stroke-width:4.17px;"/>
                </g>
                <g transform="matrix(1.204668,0,0,1.099387,-683.594484,145.160793)">
                    <path d="M3823.028,501.022L3978.654,590.873L4034.656,558.54L3878.895,468.612L3823.028,501.022Z" style="fill:white;stroke:black;stroke-width:3.45px;"/>
                </g>
                <g transform="matrix(1.204668,0,0,1.099387,-993.219681,-42.105299)">
                    <path d="M3566.342,847.19L3619.546,816.473L3690.485,857.429L3637.28,888.147L3566.342,847.19Z" style="fill:rgb(122,147,212);stroke:black;stroke-width:4.17px;"/>
                </g>
                <g transform="matrix(1.204668,0,0,1.099387,-748.308298,-171.147495)">
                    <path d="M3566.342,847.19L3619.546,816.473L3690.485,857.429L3637.28,888.147L3566.342,847.19Z" style="fill:rgb(122,147,212);stroke:black;stroke-width:4.17px;"/>
                </g>
                <g transform="matrix(1.204668,0,0,1.099387,-907.762038,2.92177)">
                    <path d="M3566.342,847.19L3619.546,816.473L3690.485,857.429L3637.28,888.147L3566.342,847.19Z" style="fill:rgb(122,147,212);stroke:black;stroke-width:4.17px;"/>
                </g>
                <g transform="matrix(1.204668,0,0,1.099387,-662.850655,-126.120425)">
                    <path d="M3566.342,847.19L3619.546,816.473L3690.485,857.429L3637.28,888.147L3566.342,847.19Z" style="fill:rgb(122,147,212);stroke:black;stroke-width:4.17px;"/>
                </g>
                <g transform="matrix(1.204668,0,0,1.099387,-823.083736,47.53821)">
                    <path d="M3566.342,847.19L3619.546,816.473L3690.485,857.429L3637.28,888.147L3566.342,847.19Z" style="fill:rgb(122,147,212);stroke:black;stroke-width:4.17px;"/>
                </g>
                <g transform="matrix(1.204668,0,0,1.099387,-578.172354,-81.503985)">
                    <path d="M3566.342,847.19L3619.546,816.473L3690.485,857.429L3637.28,888.147L3566.342,847.19Z" style="fill:rgb(122,147,212);stroke:black;stroke-width:4.17px;"/>
                </g>
                <g transform="matrix(1.204668,0,0,1.099387,-683.594484,145.160793)">
                    <path d="M2978.149,777.856L3017.478,755.15L3059.007,779.126L3019.677,801.833" style="fill:white;stroke:black;stroke-width:3.45px;"/>
                </g>
                <g transform="matrix(1.204668,0,0,1.099387,-683.594484,145.160793)">
                    <path d="M2978.149,777.856L3019.677,801.833" style="fill:none;stroke:black;stroke-width:3.45px;"/>
                </g>
                <g transform="matrix(1.204668,0,0,1.099387,-683.594484,145.160793)">
                    <path d="M4003.274,511.957L4029.876,496.598L4056.478,511.957L4029.876,527.315L4003.274,511.957Z" style="fill:white;stroke:black;stroke-width:3.45px;"/>
                </g>
                <g transform="matrix(1.204668,0,0,1.099387,-683.594484,145.160793)">
                    <path d="M4029.876,578.511L4056.478,563.152L4083.08,578.511L4056.478,593.87L4029.876,578.511Z" style="fill:white;stroke:black;stroke-width:3.45px;"/>
                </g>
                <g transform="matrix(5.247496,0,0,4.788897,-15020.809457,-1778.231969)">
                    <path d="M3567.266,354.121L3540.612,338.732L3433.112,400.797L3459.766,416.186L3462.054,498.668L3569.554,436.603L3567.266,354.121Z" style="fill:none;stroke:black;stroke-width:0.79px;"/>
                </g>
                <g transform="matrix(5.247496,0,0,4.788897,-15065.287612,-1754.796722)">
                    <path d="M3338.223,383.967L3524.046,276.682L3612.719,327.878L3426.505,435.389L3338.223,383.967Z" style="fill:none;stroke:black;stroke-width:0.79px;"/>
                </g>
                <g transform="matrix(5.247496,0,0,4.788897,-15020.809457,-1778.231969)">
                    <path d="M3418.029,440.283L3329.747,388.861L3329.747,500.999L3418.637,552.32L3418.029,440.283Z" style="fill:none;stroke:black;stroke-width:0.79px;"/>
                </g>
                <g transform="matrix(5.247496,0,0,4.788897,-15020.809457,-1778.231969)">
                    <path d="M3418.637,552.32L3604.201,445.185L3604.201,332.366" style="fill:none;stroke:black;stroke-width:0.79px;"/>
                </g>
                <g transform="matrix(5.247496,0,0,4.788897,-15020.809457,-1778.231969)">
                    <path d="M3338.223,404.446L3409.077,445.353" style="fill:none;stroke:black;stroke-width:0.35px;"/>
                </g>
                <g transform="matrix(5.247496,0,0,4.788897,-15020.809457,-1729.249649)">
                    <path d="M3338.223,404.446L3409.077,445.353" style="fill:none;stroke:black;stroke-width:0.35px;"/>
                </g>
                <g transform="matrix(5.247496,0,0,4.788897,-15020.809457,-1680.267329)">
                    <path d="M3338.223,404.446L3409.077,445.353" style="fill:none;stroke:black;stroke-width:0.35px;"/>
                </g>
                <g transform="matrix(5.247496,0,0,4.788897,-15020.809457,-1778.231969)">
                    <path d="M3471.233,419.804L3560,368.555" style="fill:none;stroke:black;stroke-width:0.38px;"/>
                </g>
                <g transform="matrix(5.247496,0,0,4.788897,-15067.833342,-1851.523681)">
                    <path d="M3471.233,419.804L3560,368.555" style="fill:none;stroke:black;stroke-width:0.38px;"/>
                </g>
                <g transform="matrix(5.247496,0,0,4.788897,-15113.872195,-1876.300257)">
                    <path d="M3471.233,419.804L3560,368.555" style="fill:none;stroke:black;stroke-width:0.38px;"/>
                </g>
                <g transform="matrix(5.247496,0,0,4.788897,-15020.809457,-1730.119851)">
                    <path d="M3471.233,419.804L3560,368.555" style="fill:none;stroke:black;stroke-width:0.38px;"/>
                </g>
                <g transform="matrix(5.247496,0,0,4.788897,-15021.301973,-1679.904177)">
                    <path d="M3471.233,419.804L3560,368.555" style="fill:none;stroke:black;stroke-width:0.38px;"/>
                </g>
                <g transform="matrix(5.247496,0,0,4.788897,-15020.809457,-1631.129537)">
                    <path d="M3471.233,419.804L3560,368.555" style="fill:none;stroke:black;stroke-width:0.38px;"/>
                </g>
                <g transform="matrix(5.247496,0,0,4.788897,-15020.809457,-1582.095393)">
                    <path d="M3471.233,419.804L3560,368.555" style="fill:none;stroke:black;stroke-width:0.38px;"/>
                </g>
                <g transform="matrix(5.247496,0,0,4.788897,-15020.809457,-1533.061249)">
                    <path d="M3471.233,419.804L3560,368.555" style="fill:none;stroke:black;stroke-width:0.38px;"/>
                </g>
                <g transform="matrix(5.247496,0,0,4.788897,-15020.809457,-1484.027105)">
                    <path d="M3471.233,419.804L3560,368.555" style="fill:none;stroke:black;stroke-width:0.38px;"/>
                </g>
                <g transform="matrix(5.247496,0,0,4.788897,-15020.809457,-1631.28501)">
                    <path d="M3338.223,404.446L3409.077,445.353" style="fill:none;stroke:black;stroke-width:0.35px;"/>
                </g>
                <g transform="matrix(5.247496,0,0,4.788897,-15017.965314,-1582.30269)">
                    <path d="M3338.223,404.446L3409.077,445.353" style="fill:none;stroke:black;stroke-width:0.35px;"/>
                </g>
                <g transform="matrix(5.247496,0,0,4.788897,-15021.030763,-1533.32037)">
                    <path d="M3338.223,404.446L3409.077,445.353" style="fill:none;stroke:black;stroke-width:0.35px;"/>
                </g>
                <g transform="matrix(5.247496,0,0,4.788897,-15021.030763,-1484.338051)">
                    <path d="M3338.223,404.446L3409.077,445.353" style="fill:none;stroke:black;stroke-width:0.35px;"/>
                </g>
                <g transform="matrix(5.247496,0,0,4.788897,-15021.030763,-1435.355731)">
                    <path d="M3338.223,404.446L3409.077,445.353" style="fill:none;stroke:black;stroke-width:0.35px;"/>
                </g>
                <g transform="matrix(5.247496,0,0,4.788897,-15021.030763,-1386.373411)">
                    <path d="M3338.223,404.446L3409.077,445.353" style="fill:none;stroke:black;stroke-width:0.35px;"/>
                </g>
                <g transform="matrix(5.247496,0,0,4.788897,-15020.809457,-1337.391092)">
                    <path d="M3338.223,404.446L3409.077,445.353" style="fill:none;stroke:black;stroke-width:0.35px;"/>
                </g>
                <g transform="matrix(5.247496,0,0,4.788897,-15020.809457,-1778.231969)">
                    <path d="M3347.09,505.658L3347.09,435.884L3373.608,428.539L3400.294,455.093L3400.294,536.448" style="fill:none;stroke:black;stroke-width:1.2px;"/>
                </g>
                <g transform="matrix(1.204668,0,0,1.099387,-989.54346,-38.555244)">
                    <g transform="matrix(1,-0,-0,1,2800.698201,35.069763)">
                        <path d="M1014.288,313.362L1001.58,312.542L1007.224,301.126" style="fill:none;stroke:black;stroke-width:1.67px;stroke-linejoin:miter;stroke-miterlimit:10;"/>
                        <path d="M1311.039,133.876C1311.039,133.876 1023.35,299.973 1001.58,312.542" style="fill:none;stroke:black;stroke-width:1.67px;"/>
                    </g>
                </g>
                <g transform="matrix(1.59138,-0.203756,-0.223269,1.217026,-2347.517609,1115.966327)">
                    <g transform="matrix(0.775204,0.129786,0.129786,0.925068,2913.227264,-429.225008)">
                        <path d="M1039.283,698.257L1029.633,695.672L1032.219,686.022" style="fill:none;stroke:black;stroke-width:1.67px;stroke-linejoin:miter;stroke-miterlimit:10;"/>
                        <path d="M1472.383,440.05C1472.383,440.05 1053.072,682.139 1029.633,695.672" style="fill:none;stroke:black;stroke-width:1.67px;"/>
                    </g>
                </g>
                <g transform="matrix(1.204668,0,0,1.099387,-993.219681,-40.49222)">
                    <g transform="matrix(1,-0,-0,1,2803.749849,36.831633)">
                        <path d="M571.523,958.72L581.173,961.306L578.587,970.956" style="fill:none;stroke:black;stroke-width:1.67px;stroke-linejoin:miter;stroke-miterlimit:10;"/>
                        <path d="M412.385,1058.755C412.385,1058.755 567.107,969.426 581.173,961.306" style="fill:none;stroke:black;stroke-width:1.67px;"/>
                    </g>
                </g>
                <g transform="matrix(0.602334,-0.952097,1.043273,0.549694,-480.702855,3269.548879)">
                    <g transform="matrix(0.5,0.866025,-0.866025,0.5,3764.690982,572.68738)">
                        <path d="M171.502,406.865L178.566,399.801L185.63,406.865" style="fill:none;stroke:black;stroke-width:1.67px;stroke-linejoin:miter;stroke-miterlimit:10;"/>
                        <path d="M178.566,736.513L178.566,399.801" style="fill:none;stroke:black;stroke-width:1.67px;"/>
                    </g>
                </g>
                <g transform="matrix(1.204668,0,0,1.099387,-1122.190377,11.054154)">
                    <g transform="matrix(1,-0,-0,1,2910.809008,-10.054834)">
                        <path d="M1007.371,802.386L1004.785,792.736L1014.435,790.15" style="fill:none;stroke:black;stroke-width:1.67px;stroke-linejoin:miter;stroke-miterlimit:10;"/>
                        <path d="M1369.407,1003.25C1369.407,1003.25 1025.956,804.959 1004.785,792.736" style="fill:none;stroke:black;stroke-width:1.67px;"/>
                    </g>
                </g>
                <g transform="matrix(1.204668,0,0,1.099387,-955.985691,472.06619)">
                    <g transform="matrix(50,0,0,50,3048.673041,365.003749)">
                    </g>
                    <text x="2854.142px" y="365.004px" style="font-family:'ArialMT', 'Arial', sans-serif;font-size:50px;">Heatsink</text>
                </g>
                <g transform="matrix(1.204668,0,0,1.099387,549.334063,-262.626154)">
                    <g transform="matrix(50,0,0,50,3009.781439,365.003749)">
                    </g>
                    <text x="2854.142px" y="365.004px" style="font-family:'ArialMT', 'Arial', sans-serif;font-size:50px;">Casing</text>
                </g>
                <g transform="matrix(1.204668,0,0,1.099387,728.255934,76.210531)">
                    <g transform="matrix(50,0,0,50,3106.11933,365.003749)">
                    </g>
                    <text x="2854.142px" y="365.004px" style="font-family:'ArialMT', 'Arial', sans-serif;font-size:50px;">V<tspan x="2886.588px 2897.696px " y="365.004px 365.004px ">id</tspan>eo RAM</text>
                </g>
                <g transform="matrix(1.204668,0,0,1.099387,612.15836,712.619997)">
                    <text x="2854.142px" y="365.004px" style="font-family:'ArialMT', 'Arial', sans-serif;font-size:50px;">Graphics</text>
                    <text x="2854.142px" y="422.499px" style="font-family:'ArialMT', 'Arial', sans-serif;font-size:50px;">Processing Unit</text>
                    <g transform="matrix(50,0,0,50,2995.792181,479.993984)">
                    </g>
                    <text x="2854.142px" y="479.994px" style="font-family:'ArialMT', 'Arial', sans-serif;font-size:50px;">(GPU)</text>
                </g>
                <g transform="matrix(1.204668,0,0,1.099387,-955.985691,734.681208)">
                    <text x="2854.142px" y="365.004px" style="font-family:'ArialMT', 'Arial', sans-serif;font-size:50px;">Printed Wiring</text>
                    <g transform="matrix(50,0,0,50,3137.564642,422.498867)">
                    </g>
                    <text x="2854.142px" y="422.499px" style="font-family:'ArialMT', 'Arial', sans-serif;font-size:50px;">Board (PCB)</text>
                </g>
                <g transform="matrix(2.446767,0,0,2.232934,-5503.892376,-582.328483)">
                    <path d="M3349.145,242.087L3401.921,272.557L3624.172,144.241L3571.343,113.74" style="fill:none;stroke:black;stroke-width:0.82px;"/>
                </g>
            </g>
        </g>
    </g>
</svg>
